<svg xmlns="http://www.w3.org/2000/svg" width="30.031" height="30" viewBox="0 0 30.031 30">
  <defs>
    <style>
      .cls-1 {
        fill: #fff;
        fill-rule: evenodd;
      }
    </style>
  </defs>
  <path id="Logo.svg" class="cls-1" d="M105.663,54.325l1.118,0.04a4.329,4.329,0,0,1,.959.04h1.518a1.08,1.08,0,0,1,.758.96h-0.04c-0.013.08-.026,0.16-0.04,0.24H109.9v0.12l-0.079.04v0.08l-0.959.92-2.8,2.841H101.79l-0.959,1-0.2.16a8.538,8.538,0,0,1-.959,1l-1.318,1.361a5.924,5.924,0,0,0-.719.64L95.6,65.846H95.48l-0.04.08-0.2.04v0.04a1.2,1.2,0,0,1-.759-0.16l-0.2-.24-0.08-.04-0.04-.16h-0.04v-0.08h-0.04v-0.08h-0.04v-0.48h0.04l0.04-.16h0.04v-0.12l0.08-.04v-0.08h0.04a0.447,0.447,0,0,0,.12-0.2h0.08a0.226,0.226,0,0,1,.2-0.2v-0.08h0.08v-0.08h0.08v-0.08h0.08v-0.08H95c0.029-.111.011-0.09,0.12-0.12v-0.08H95.2v-0.08h0.08v-0.08h0.08v-0.08h0.08v-0.08h0.08c0.029-.111.011-0.09,0.12-0.12v-0.08h0.08v-0.08H95.8v-0.08h0.08v-0.08h0.08v-0.08h0.08c0.029-.111.011-0.09,0.12-0.12v-0.08h0.08v-0.08h0.08v-0.08H96.4v-0.08h0.08v-0.08h0.08c0.029-.111.011-0.089,0.12-0.12v-0.08h0.08v-0.08h0.08a2.189,2.189,0,0,1,.559-0.6v-0.04l1.318-1.281a1.937,1.937,0,0,1,.559-0.52v-0.08h0.08v-0.08h0.08v-0.08h0.08c0.029-.111.011-0.09,0.12-0.12v-0.08h0.08v-0.08h0.08v-0.08h0.08v-0.08h0.08V58.6c0.11-.029.089-0.011,0.119-0.12h0.08v-0.08h0.08v-0.08h0.08v-0.08h0.08a10.07,10.07,0,0,0,.04-1.56v-2.8a1.844,1.844,0,0,0,.2-0.2,7.414,7.414,0,0,0,.878-0.841l2.037-2,0.559-.6h0.08c0.013-.027.026-0.054,0.04-0.08h0.08c0.013-.027.026-0.053,0.04-0.08a0.974,0.974,0,0,1,.519-0.08v0.04h0.119v0.04h0.08c0.014,0.027.027,0.053,0.04,0.08h0.12V50.2l0.24,0.2v0.08h0.04v0.08h0.04v0.12h0.039v0.68c0.069,0.247-.03.666,0.04,0.92h0.04v2.04Zm-7.348,1.76-0.359-.12v-0.04l-0.24-.04v-0.04h-0.08v-0.04l-0.239-.04v-0.04h-0.12v-0.04L97,55.645V55.6l-0.28-.04v-0.04l-1.557-.28H94.641V55.2a5.316,5.316,0,0,0-1.278.04H92.844v0.04h-0.32v0.04H92.245v0.041h-0.2V55.4h-0.24v0.04h-0.16v0.04l-0.359.04L89.849,56v0.04l-0.16.04v0.04H89.61v0.041H89.49V56.2l-0.239.08v0.04H89.17v0.04H89.09V56.4l-0.24.08-0.04.08-0.24.08-0.04.08-0.16.04-0.04.08-0.16.04v0.04l-0.12.04-0.04.08h-0.08l-0.08.12h-0.08l-0.04.08h-0.08l-0.08.12h-0.08l-0.08.12h-0.08l-0.12.16h-0.08l-0.2.24h-0.08l-0.279.32-0.679.64v0.08l-0.24.2v0.08l-0.16.12v0.08l-0.12.08v0.08l-0.12.08v0.08l-0.08.04v0.08l-0.12.08v0.08l-0.08.04v0.08l-0.08.04-0.04.159-0.08.041-0.04.16-0.08.04-0.08.24-0.08.04v0.08h-0.04v0.08h-0.04v0.08h-0.04v0.08h-0.04v0.08H84.3l-0.08.24h-0.04v0.12h-0.04v0.08H84.1v0.08h-0.04v0.08h-0.04v0.12h-0.04v0.08h-0.04l-0.04.24h-0.04v0.08h-0.04l-0.4,1.44-0.08.72H83.3v0.32H83.26v0.52H83.22a5.323,5.323,0,0,0,.04,1.28v0.52H83.3v0.32h0.04v0.28h0.04v0.2h0.04v0.24h0.04v0.16H83.5v0.2h0.04v0.16h0.04l0.04,0.28h0.04v0.12H83.7v0.16h0.04v0.12h0.04v0.12h0.04v0.12h0.04v0.08H83.9l0.04,0.24h0.04v0.08h0.04v0.12h0.04l0.04,0.16h0.04v0.08h0.04v0.12h0.04l0.08,0.24h0.04v0.08h0.04v0.08h0.04l0.08,0.24,0.08,0.04,0.08,0.24,0.08,0.04,0.04,0.16,0.08,0.04,0.04,0.16,0.08,0.04v0.08h0.04l0.04,0.12,0.08,0.04v0.08l0.12,0.08v0.08l0.12,0.08v0.08l0.12,0.08v0.08l0.16,0.12v0.08l0.24,0.2v0.08l0.679,0.64,0.279,0.32h0.08l0.2,0.24h0.08l0.12,0.16h0.08l0.08,0.12h0.08l0.08,0.12h0.08l0.08,0.12h0.08l0.04,0.08h0.08l0.04,0.08,0.12,0.04v0.04l0.16,0.04,0.04,0.08,0.16,0.04,0.04,0.08,0.24,0.08,0.04,0.08h0.08v0.04h0.08v0.04h0.08v0.04h0.08v0.04h0.08v0.04h0.08v0.04l0.24,0.08v0.04l0.2,0.04v0.04h0.08v0.04h0.12v0.04h0.08v0.04l0.239,0.04v0.04h0.08v0.04l0.359,0.08v0.04h0.16v0.04h0.12v0.04l0.279,0.04v0.04h0.16v0.04l0.359,0.04v0.04h0.24v0.04h0.2v0.04h0.279v0.04l0.839,0.04v0.04a5.294,5.294,0,0,0,1.278-.04l0.839-.04v-0.04H95.76v-0.04h0.2v-0.04H96.2v-0.04h0.16v-0.04l0.359-.04v-0.04h0.12v-0.04H97v-0.04h0.12v-0.04h0.16v-0.04H97.4V76.247h0.12v-0.04h0.12v-0.04h0.08v-0.04l0.24-.04v-0.04h0.08v-0.04h0.12v-0.04l0.16-.04v-0.04H98.4v-0.04h0.12v-0.04l0.24-.08v-0.04h0.08v-0.04h0.08v-0.04l0.24-.08,0.04-.08,0.239-.08,0.04-.08,0.16-.04,0.04-.08,0.16-.04,0.04-.08h0.08v-0.04l0.119-.04c0.014-.027.027-0.053,0.04-0.08h0.08c0.014-.027.027-0.053,0.04-0.08l0.12-.04,0.08-.12h0.08l0.08-.12h0.079l0.12-.16h0.08l0.2-.24h0.08l0.4-.44,0.559-.52v-0.08l0.24-.2v-0.08l0.16-.12v-0.08l0.119-.08v-0.08l0.12-.08c0.013-.04.027-0.08,0.04-0.12l0.08-.04v-0.08l0.08-.04c0.013-.04.026-0.08,0.04-0.12h0.04v-0.08l0.08-.04c0.013-.053.026-0.107,0.04-0.16l0.079-.04c0.014-.053.027-0.107,0.04-0.16l0.08-.04,0.08-.24,0.08-.04v-0.08h0.04v-0.08h0.04v-0.08h0.04v-0.08h0.04v-0.08h0.04v-0.08h0.04c0.026-.08.053-0.16,0.079-0.24h0.04v-0.12h0.04c0.014-.053.027-0.107,0.04-0.16h0.04q0.24-.72.479-1.44c0.014-.12.027-0.24,0.04-0.36h0.04v-0.16h0.04v-0.24h0.04v-0.2h0.04c0.027-.24.053-0.48,0.08-0.72v-0.4h0.04a5.343,5.343,0,0,0-.04-1.28c-0.013-.28-0.027-0.56-0.04-0.84h-0.04v-0.28h-0.04v-0.2h-0.04v-0.24h-0.04c-0.013-.12-0.026-0.24-0.04-0.36h-0.04v-0.16h-0.04c-0.013-.094-0.026-0.187-0.04-0.28h-0.039v-0.12h-0.04v-0.16h-0.04v-0.12h-0.04v-0.12h-0.04v-0.12h-0.04v-0.08h-0.04c-0.013-.08-0.027-0.16-0.04-0.24h-0.04l-0.12-.36a9.655,9.655,0,0,0,2.556-.12l0.519-.08v-0.04l0.12-.041v-0.04c0.078-.019.053,0.023,0.08,0.04a1.673,1.673,0,0,1,.2.6c0.177,0.456.252,1.027,0.4,1.52,0.013,0.173.026,0.347,0.04,0.52h0.04v0.28h0.04v0.4h0.04v0.52a4.535,4.535,0,0,1,0,1.52v0.52H107.9v0.4h-0.04v0.28h-0.04v0.28c-0.056.188-.1,0.458-0.16,0.64v0.2h-0.04v0.16h-0.04v0.159h-0.04v0.16H107.5v0.16h-0.04v0.16h-0.04v0.12h-0.039v0.12h-0.04v0.12H107.3c-0.014.093-.027,0.187-0.04,0.28h-0.04v0.08h-0.04c-0.027.12-.053,0.24-0.08,0.36h-0.04v0.08h-0.04v0.12h-0.04c-0.013.067-.026,0.133-0.04,0.2H106.9v0.08h-0.04v0.12h-0.04c-0.026.08-.053,0.16-0.079,0.24H106.7v0.08h-0.04v0.12h-0.04l-0.08.24H106.5v0.08h-0.04c-0.027.08-.053,0.16-0.08,0.24l-0.08.04v0.08h-0.04v0.08h-0.04v0.08h-0.04v0.08l-0.079.04c-0.027.08-.054,0.16-0.08,0.24l-0.08.04v0.08l-0.08.04c-0.013.053-.027,0.107-0.04,0.16l-0.08.04v0.08l-0.08.04v0.08l-0.08.04v0.08h-0.039c-0.014.04-.027,0.08-0.04,0.12l-0.08.04v0.08l-0.12.08v0.08l-0.12.08v0.08l-0.12.08v0.08l-0.159.12v0.08l-0.16.12a9.023,9.023,0,0,1-1.038,1.121l-0.4.44h-0.08l-0.2.24h-0.08l-0.16.2h-0.08l-0.12.16h-0.079l-0.08.12h-0.08c-0.027.04-.054,0.08-0.08,0.12h-0.08l-0.08.12h-0.08c-0.013.027-.026,0.053-0.04,0.08l-0.119.04v0.04h-0.08c-0.014.027-.027,0.053-0.04,0.08h-0.08l-0.04.08h-0.08l-0.04.08-0.16.04c-0.013.027-.026,0.053-0.04,0.08l-0.119.04v0.04h-0.08v0.04h-0.08v0.04h-0.08l-0.04.08h-0.08v0.041h-0.08v0.04h-0.08v0.04h-0.079c-0.014.027-.027,0.053-0.04,0.08l-0.24.08v0.04h-0.08v0.04l-0.239.08v0.04h-0.12v0.04h-0.08v0.041l-0.24.08v0.04h-0.12v0.04h-0.08v0.04h-0.12v0.04h-0.08v0.04h-0.12v0.04h-0.08v0.04l-0.359.08v0.04h-0.08v0.04l-0.279.04v0.04h-0.12v0.04H98v0.04h-0.12v0.04h-0.16v0.04h-0.16v0.04H97.4v0.04h-0.16v0.04h-0.16v0.04h-0.2v0.04h-0.2v0.04h-0.2v0.04h-0.24v0.04l-0.559.04v0.04l-1.6.08-1.4-.04v-0.04H92.325v-0.04h-0.32l-1.877-.4a14.073,14.073,0,0,1-2.716-1.16h-0.08v-0.04h-0.08v-0.04h-0.08V78.207h-0.08l-0.04-.08-0.24-.08v-0.04l-0.12-.04-0.04-.08-0.16-.04v-0.04l-0.12-.04-0.04-.08h-0.08l-0.04-.08h-0.08v-0.04l-0.12-.04-0.04-.08H85.9l-0.08-.12h-0.08l-0.08-.12h-0.08l-0.08-.12h-0.08l-0.12-.16h-0.08l-0.08-.12H85.1l-0.04-.08h-0.08l-0.2-.24H84.7l-0.479-.52-0.679-.64v-0.08l-0.24-.2v-0.08l-0.2-.16v-0.08l-0.16-.12v-0.08l-0.12-.08v-0.08l-0.12-.08v-0.08l-0.12-.08v-0.08l-0.08-.04-0.04-.12h-0.04v-0.08l-0.08-.04v-0.08l-0.08-.04v-0.08l-0.08-.04-0.04-.16-0.08-.04-0.04-.12h-0.04l-0.08-.24-0.08-.04v-0.08h-0.04v-0.08h-0.04v-0.08H81.7v-0.08a14,14,0,0,1-1.158-2.72l-0.04-.32h-0.04v-0.16h-0.04V69.247h-0.04v-0.16h-0.04v-0.2H80.3l-0.04-.4h-0.04v-0.24h-0.04v-0.28h-0.04l-0.04-.68h-0.04v-0.52a4.514,4.514,0,0,1,0-1.52v-0.52h0.04l0.04-.68h0.04v-0.28c0.055-.188.1-0.458,0.16-0.64v-0.2h0.04v-0.16h0.04v-0.16h0.04v-0.16H80.5v-0.16h0.04v-0.16h0.04v-0.12h0.04v-0.12h0.04v-0.12H80.7v-0.16h0.04v-0.12h0.04v-0.08h0.04l0.08-.36h0.04v-0.08h0.04v-0.12h0.04v-0.08h0.04v-0.12H81.1v-0.08h0.04v-0.12h0.04l0.08-.24H81.3v-0.08h0.04v-0.12h0.04l0.08-.24H81.5v-0.08h0.04l0.08-.24,0.08-.04v-0.08h0.04v-0.08h0.04v-0.08h0.04v-0.08l0.08-.04,0.08-.24h0.04l0.04-.12,0.08-.04,0.04-.16h0.04l0.04-.12,0.08-.04v-0.08h0.04l0.04-.119,0.08-.041V58l0.12-.08v-0.08l0.08-.04v-0.08l0.12-.08v-0.08l0.12-.08V57.4l0.16-.12V57.2l0.12-.08v-0.04l0.08-.04v-0.08l0.24-.2v-0.08l0.6-.56,0.559-.6h0.08l0.2-.24h0.08l0.16-.2H85.3l0.12-.16H85.5l0.08-.12h0.08l0.08-.12h0.08l0.04-.08h0.08l0.08-.12H86.1l0.04-.08h0.08l0.04-.08h0.08l0.04-.08h0.08l0.04-.08,0.16-.04,0.04-.08,0.12-.04v-0.04h0.08v-0.04h0.08v-0.04h0.08l0.04-.08h0.08v-0.04h0.08v-0.04h0.08v-0.04h0.08l0.04-.08h0.08v-0.04l0.24-.08v-0.04l0.24-.08v-0.04h0.12v-0.04h0.08v-0.04l0.24-.08v-0.04h0.12v-0.04h0.08v-0.04h0.12V53h0.08v-0.04h0.12v-0.04h0.08v-0.04l0.359-.08v-0.04h0.08v-0.04l0.28-.04v-0.04h0.12V52.6h0.12v-0.04h0.12v-0.04l0.32-.04v-0.04h0.16V52.4h0.16v-0.04h0.16V52.324h0.2v-0.04l0.4-.04V52.2h0.24v-0.04h0.279v-0.04h0.28v-0.04h0.359v-0.04h0.559a4.493,4.493,0,0,1,1.518,0H95.32v0.04H95.68v0.04h0.279v0.04h0.279V52.2l0.439,0.04v0.04l0.4,0.04v0.041L97.4,52.4v0.04h0.16v0.04h0.16v0.04h0.16v0.04H98V52.6h0.12v0.04h0.12v0.04H98.4v0.04h0.12v0.04l0.2,0.04v0.04a1.156,1.156,0,0,0-.2.24v0.2h-0.04v0.16h-0.04V53.6H98.4v0.16h-0.04v0.16h-0.04v2.16Zm3.435,6.641,0.12,0.4h0.039v0.12h0.04v0.12h0.04v0.12h0.04c0.014,0.093.027,0.187,0.04,0.28h0.04l0.24,1.24v0.44h0.04v0.6a5.454,5.454,0,0,1-.16,1.48c-0.013.133-.027,0.267-0.04,0.4h-0.04c-0.013.107-.027,0.214-0.04,0.32h-0.04c-0.013.093-.026,0.187-0.04,0.28h-0.04v0.12h-0.04v0.12h-0.04v0.12H101.87v0.08h-0.04v0.12h-0.04v0.08h-0.04v0.12h-0.04c-0.014.053-.027,0.107-0.04,0.16h-0.04v0.08h-0.04v0.12h-0.04c-0.013.053-.027,0.107-0.04,0.16h-0.04c-0.013.053-.026,0.107-0.04,0.16l-0.08.04c-0.026.08-.053,0.16-0.08,0.24l-0.079.04c-0.014.053-.027,0.107-0.04,0.16h-0.04c-0.014.04-.027,0.08-0.04,0.12l-0.08.04v0.08h-0.04l-0.04.12-0.08.04v0.08l-0.12.08v0.08l-0.119.08v0.08l-0.2.16v0.08l-0.4.36-0.519.56h-0.08l-0.16.2h-0.08l-0.08.12h-0.08l-0.08.12h-0.08l-0.04.08-0.12.04v0.04h-0.08l-0.04.08-0.12.04v0.04l-0.16.04-0.04.08-0.24.08-0.04.08-0.16.04v0.04l-0.16.04v0.04h-0.12v0.04h-0.08v0.04l-0.16.04v0.04h-0.12v0.04h-0.08v0.04l-0.2.04v0.04h-0.12v0.04h-0.12v0.04h-0.12v0.04l-0.28.04v0.04l-0.319.041v0.04h-0.2v0.04h-0.2v0.04H95.28v0.04H95v0.04H94.562a4.885,4.885,0,0,1-1.837-.08h-0.24l-1.358-.36v-0.04h-0.08v-0.04h-0.12v-0.04h-0.08v-0.04h-0.12v-0.04l-0.16-.04v-0.04h-0.08v-0.04l-0.359-.12-0.04-.08h-0.08v-0.04h-0.08v-0.04h-0.08v-0.04h-0.08l-0.04-.08-0.16-.04-0.04-.08H89.45l-0.04-.08H89.33v-0.04l-0.12-.04-0.04-.08H89.09l-0.08-.12h-0.08l-0.08-.12h-0.08l-0.16-.2h-0.08l-0.679-.72-0.24-.2v-0.08l-0.2-.16v-0.08l-0.12-.08v-0.08l-0.12-.08v-0.08l-0.08-.04v-0.08l-0.08-.04v-0.08l-0.08-.04v-0.08l-0.08-.04-0.04-.16-0.08-.04v-0.08h-0.04v-0.08h-0.04v-0.08h-0.04V69.926l-0.08-.04-0.12-.36h-0.04v-0.08h-0.04l-0.04-.16h-0.04v-0.12h-0.04v-0.08h-0.04v-0.12h-0.04v-0.08H86.1v-0.12h-0.04v-0.12h-0.04v-0.12h-0.04v-0.16h-0.04v-0.12H85.9l-0.24-1.24v-0.44h-0.04a4.414,4.414,0,0,1,.04-1.12v-0.44c0.081-.284.112-0.651,0.2-0.92v-0.16H85.9v-0.16h0.04v-0.12h0.04v-0.16h0.04v-0.12h0.04v-0.12H86.1v-0.12h0.04v-0.08h0.04v-0.12h0.04v-0.08h0.04v-0.12h0.04l0.04-.16h0.04V62.486h0.04v-0.12h0.04l0.04-.16h0.04v-0.08l0.08-.04v-0.08h0.04v-0.08h0.04v-0.08h0.04v-0.08l0.08-.04,0.04-.16h0.04l0.04-.12,0.08-.041v-0.08h0.04l0.04-.12,0.08-.04v-0.08l0.12-.08v-0.08l0.12-.08v-0.08l0.2-.16v-0.08l0.479-.44,0.439-.48h0.08l0.16-.2h0.08l0.08-.12h0.08l0.08-.12h0.08l0.04-.08,0.12-.04V59h0.08l0.04-.08,0.12-.04v-0.04l0.16-.04,0.04-.08,0.24-.08V58.6h0.08l0.04-.08,0.359-.12v-0.04h0.08v-0.04l0.16-.04v-0.04h0.12V58.2h0.08v-0.04h0.12v-0.04h0.08V58.085h0.12v-0.04h0.12V58h0.12v-0.04l0.28-.04v-0.04h0.16v-0.04h0.16V57.8h0.2v-0.04h0.2V57.725h0.24v-0.04H93v-0.04h0.439a4.393,4.393,0,0,1,1.118-.04v0.04H95v0.04h0.28v0.04h0.24v0.041h0.2V57.8l0.359,0.04v0.04h0.16v0.04l0.28,0.04V58h0.12v0.04h0.12v0.04h0.12v0.041h0.08v0.04a1.017,1.017,0,0,1,.4.16h-0.04a1.193,1.193,0,0,1-.24.24l-0.479.48-0.439.48-0.2.16v0.08l-0.12.04-0.04.08-0.2.16-0.2.28H95.32l-0.479.52h-0.4a3.023,3.023,0,0,0-.879-0.04v0.04H93.2v0.04H93v0.04H92.8v0.04h-0.16v0.04h-0.12v0.04h-0.16v0.04h-0.08v0.04l-0.24.041v0.04l-0.16.04v0.04h-0.12v0.04h-0.08v0.04h-0.08l-0.04.08-0.24.08-0.04.08-0.16.04-0.08.12h-0.08l-0.04.08h-0.08l-0.12.16a5.158,5.158,0,0,0-1.637,2.24l-0.04.28h-0.04v0.12h-0.04v0.16h-0.04v0.2a4.1,4.1,0,0,0,0,2l0.04,0.361h0.04v0.12h0.04l0.04,0.28h0.04v0.08h0.04v0.12h0.04l0.04,0.16h0.04l0.12,0.36,0.08,0.04,0.04,0.16,0.08,0.04,0.04,0.16,0.12,0.08,0.04,0.12h0.04v0.08l0.16,0.12a5.142,5.142,0,0,0,2.8,1.8H93v0.04h0.2v0.04h0.359v0.04a2.682,2.682,0,0,0,.879-0.04H94.8v-0.04H95v-0.04h0.2v-0.04h0.16v-0.04h0.12v-0.04h0.16v-0.04h0.08v-0.04l0.24-.04v-0.04l0.16-.04v-0.04l0.359-.12,0.04-.08,0.16-.04,0.04-.08H96.8v-0.04h0.08l0.08-.12h0.08l0.04-.08h0.08l0.12-.16h0.08l0.359-.4,0.28-.24v-0.08l0.16-.12v-0.08l0.08-.04v-0.08l0.12-.08v-0.08H98.4v-0.08l0.08-.04,0.04-.16,0.08-.04v-0.08h0.04l0.04-.16h0.04v-0.12h0.04l0.04-.16h0.04l0.04-.2h0.04l0.04-.28h0.04v-0.12h0.04v-0.16h0.04v-0.2h0.04v-0.2h0.04v-0.36a4.954,4.954,0,0,0,0-1.24l0.279-.2,0.04-.12,0.479-.4v-0.08h0.04l0.159-.2h0.08c0.014-.027.027-0.053,0.04-0.08h0.04l0.359-.44h0.08l0.08-.12,0.08-.04v-0.08l0.24-.2c0.013-.027.026-0.054,0.04-0.08h0.079l0.08-.12,0.08-.04v-0.08h0.04l0.16-.2h0.12Z" transform="translate(-80 -50)"/>
</svg>
